<?xml version="1.0" encoding="utf-8"?>
<svg width="50px" height="50px" viewBox="0 0 50 50" version="1.1" xmlns:xlink="http://www.w3.org/1999/xlink" xmlns="http://www.w3.org/2000/svg">
  <desc>Created with Lunacy</desc>
  <g id="Group-2">
    <path d="M0 0L50 0L50 50L0 50L0 0Z" id="Rectangle" fill="#D3D3D3" fill-opacity="0" stroke="none" />
    <g id="Group" transform="translate(7 7)">
      <path d="M18 0L23.2901 10.7188L35.119 12.4377L26.5595 20.7812L28.5801 32.5623L18 27L7.41986 32.5623L9.44049 20.7812L0.880983 12.4377L12.7099 10.7188L18 0Z" id="Star" fill="#444444" stroke="none" />
      <path d="M0 12C0 5.37258 5.37258 0 12 0C18.6274 0 24 5.37258 24 12C24 18.6274 18.6274 24 12 24C5.37258 24 0 18.6274 0 12Z" transform="translate(6 6)" id="Ellipse" fill="#444444" stroke="none" />
    </g>
  </g>
</svg>